# xmcd
#
# Track frame offsets:
#	150
#	15305
#	29756
#	42440
#	57781
#	71440
#	86799
#	101192
#	116181
#	130954
#
# Disc length: 1945 seconds
#
# Revision: 0
# Processed by: cddbd v1.5.2PL0 Copyright (c) Steve Scherf et al.
# Submitted via: EasyCDDAExtractor 16.0.6.1
#
DISCID=8c07970a
DTITLE=Συλλογικός δίσκος - Ιστορία ρεμπέτικου και λαϊκού 03-4
DYEAR=2007
DGENRE=Ποικίλη
TTITLE0=Παγιουμτζής Στράτος-Περπινιάδης Στελλάκης - Θα κλέψω μιά μελαχροινή [Δ
TTITLE0=ημ. Γκόγκος]
TTITLE1=Παγιουμτζής Στράτος - Μέσ' στην πολλή σκοτούρα μου [Β.Τσιτσάνης-Στ.Παγ
TTITLE1=ιουμτζής]
TTITLE2=Περδικόπουλος Δημήτρης - Ξελογιάστρα [Βασ. Τσιτσάνης]
TTITLE3=Παπαϊωάννου Γιάννης-Χατζηχρήστος Απόστολος - Αυγουλού [Γ. Παπαϊωάννου-
TTITLE3=Κ. Μακρής]
TTITLE4=Παγιουμτζής Στράτος-Περπινιάδης Στελλάκης - Βαγγελίτσα [Γ. Παπαϊωάννου
TTITLE4=]
TTITLE5=Κάβουρας Γιώργος - Κάθε βράδυ με γελάς [Κ. Σκαρβέλης]
TTITLE6=Κάβουρας Γιώργος - Μέσα στο Τουρκολίμανο (Πασαλιμάνι)[Κ. Σκαρβέλης]
TTITLE7=Γεωργακοπούλου Ιωάννα-Κηρομύτης Στέλιος - Μπροστά στον Άγιο Σπυρίδωνα 
TTITLE7=[Ν. Κουρνάζος-Β. Ταμβάκης]
TTITLE8=Βαμβακάρης Μάρκος - Μαριγούλα Μανταλένα [Σπ. Περιστέρης]
TTITLE9=Παγιουμτζής Στράτος-Περπινιάδης Στελλάκης - Σε φίνο ακρογιάλι (Παραγου
TTITLE9=άη)[Β. Τσιτσάνης]
EXTD=
EXTT0=
EXTT1=
EXTT2=
EXTT3=
EXTT4=
EXTT5=
EXTT6=
EXTT7=
EXTT8=
EXTT9=
PLAYORDER=
